<svg width="48" height="48" viewBox="0 0 48 48" fill="none" xmlns="http://www.w3.org/2000/svg">
<path fill-rule="evenodd" clip-rule="evenodd" d="M14.1357 4.89899C15.3194 4.77393 16.405 5.15757 17.3379 5.5904C18.2815 6.02828 19.4167 6.6904 20.751 7.4654L37.4971 17.192C38.832 17.9674 39.9707 18.6249 40.8193 19.2281C41.6593 19.8252 42.5242 20.5768 43.0049 21.6627C43.6635 23.1511 43.6636 24.85 43.0049 26.3384C42.5242 27.4244 41.6593 28.1759 40.8193 28.773C39.9706 29.3763 38.8321 30.0337 37.4971 30.8092L20.751 40.5357C19.4167 41.3108 18.2815 41.9728 17.3379 42.4107C16.405 42.8435 15.3194 43.2272 14.1357 43.1021C12.5144 42.9303 11.0463 42.0727 10.0928 40.7525C9.39843 39.7907 9.18743 38.6625 9.09375 37.6353C8.99908 36.596 9 35.2779 9 33.7271V14.274C9 12.7232 8.99908 11.4051 9.09375 10.3658C9.18742 9.3386 9.39839 8.21043 10.0928 7.2486C11.0463 5.92826 12.5143 5.07082 14.1357 4.89899ZM14.6104 9.37556C14.2659 9.412 13.9486 9.59384 13.7402 9.88239C13.7685 9.84319 13.6461 9.97434 13.5732 10.773C13.5015 11.5597 13.5 12.6346 13.5 14.274V33.7271C13.5 35.3666 13.5015 36.4415 13.5732 37.2281C13.6459 38.0251 13.7679 38.1572 13.7402 38.1187C13.9486 38.4071 14.266 38.5891 14.6104 38.6256C14.6591 38.6211 14.8862 38.5876 15.4424 38.3297C16.1538 37.9996 17.0804 37.4651 18.4922 36.6451L35.2353 26.9185C36.6474 26.0984 37.5718 25.56 38.2119 25.1051C38.8538 24.6488 38.9096 24.4766 38.8916 24.5162C39.0363 24.1883 39.0362 23.8128 38.8916 23.4849C38.9092 23.5234 38.8521 23.3511 38.2119 22.8961C37.5719 22.4411 36.6473 21.9027 35.2353 21.0826L18.4922 11.356C17.0805 10.536 16.1537 10.0015 15.4424 9.67146C14.8863 9.41355 14.6592 9.38 14.6104 9.37556Z" fill="#E7E2DC"/>
</svg>
