<svg width="16" height="16" viewBox="0 0 16 16" fill="none" xmlns="http://www.w3.org/2000/svg">
<path d="M5.96969 3.71979C6.26258 3.4269 6.73734 3.4269 7.03023 3.71979C7.32306 4.01269 7.3231 4.48747 7.03023 4.78034L4.56051 7.25006H13.25C13.6642 7.25009 14 7.58587 14 8.00006C13.9999 8.41425 13.6641 8.75004 13.25 8.75006H4.56051L7.03023 11.2198C7.32305 11.5127 7.32309 11.9875 7.03023 12.2803C6.73736 12.5732 6.26257 12.5731 5.96969 12.2803L2.50289 8.81354C2.46216 8.77281 2.39911 8.71012 2.34762 8.64948C2.29044 8.58213 2.20435 8.46878 2.1523 8.30866C2.08724 8.10811 2.08727 7.89202 2.1523 7.69147C2.20433 7.53134 2.29044 7.41802 2.34762 7.35065C2.3991 7.29001 2.46214 7.22734 2.50289 7.18659L5.96969 3.71979Z" fill="#0E0E10"/>
</svg>
