<svg width="16" height="16" viewBox="0 0 16 16" fill="none" xmlns="http://www.w3.org/2000/svg">
<path d="M8.96973 3.71982C9.26262 3.42693 9.73738 3.42693 10.0303 3.71982L13.4971 7.18661C13.5378 7.22737 13.6009 7.29002 13.6523 7.35068C13.7095 7.41805 13.7956 7.53133 13.8477 7.6915C13.9127 7.89208 13.9127 8.10812 13.8477 8.30869C13.7956 8.46885 13.7095 8.58215 13.6523 8.64951C13.6008 8.71017 13.5378 8.77282 13.4971 8.81357L10.0303 12.2804C9.73739 12.5732 9.26262 12.5732 8.96973 12.2804C8.67684 11.9875 8.67685 11.5127 8.96973 11.2198L11.4395 8.75009H2.75C2.33583 8.75009 2.00006 8.41425 2 8.00009C2 7.58588 2.33579 7.2501 2.75 7.25009H11.4395L8.96973 4.78036C8.67685 4.48748 8.67686 4.01271 8.96973 3.71982Z" fill="#0E0E10"/>
</svg>
